<?xml version="1.0" encoding="UTF-8"?>
<svg xmlns="http://www.w3.org/2000/svg" xmlns:xlink="http://www.w3.org/1999/xlink" width="375pt" height="374.999991pt" viewBox="0 0 375 374.999991" version="1.2">
<g id="surface1">
<rect x="0" y="0" width="375" height="374.999991" style="fill:rgb(100%,100%,100%);fill-opacity:1;stroke:none;"/>
<rect x="0" y="0" width="375" height="374.999991" style="fill:rgb(100%,100%,100%);fill-opacity:1;stroke:none;"/>
<rect x="0" y="0" width="375" height="374.999991" style="fill:rgb(100%,100%,100%);fill-opacity:1;stroke:none;"/>
<path style=" stroke:none;fill-rule:nonzero;fill:rgb(0%,0%,0%);fill-opacity:1;" d="M 187.5 375 C 84.113281 375 0 290.886719 0 187.5 C 0 84.113281 84.113281 0 187.5 0 C 290.886719 0 375 84.113281 375 187.5 C 375 290.886719 290.886719 375 187.5 375 Z M 187.5 16.304688 C 93.097656 16.304688 16.304688 93.097656 16.304688 187.5 C 16.304688 281.902344 93.097656 358.695312 187.5 358.695312 C 281.902344 358.695312 358.695312 281.902344 358.695312 187.5 C 358.695312 93.097656 281.902344 16.304688 187.5 16.304688 Z M 187.5 16.304688 "/>
<path style=" stroke:none;fill-rule:nonzero;fill:rgb(0%,0%,0%);fill-opacity:1;" d="M 285.324219 293.476562 C 280.824219 293.476562 277.175781 289.824219 277.175781 285.324219 C 277.175781 235.875 236.949219 195.652344 187.5 195.652344 C 138.050781 195.652344 97.824219 235.875 97.824219 285.324219 C 97.824219 289.824219 94.175781 293.476562 89.675781 293.476562 C 85.175781 293.476562 81.523438 289.824219 81.523438 285.324219 C 81.523438 226.890625 129.066406 179.347656 187.5 179.347656 C 245.933594 179.347656 293.476562 226.890625 293.476562 285.324219 C 293.476562 289.824219 289.824219 293.476562 285.324219 293.476562 Z M 285.324219 293.476562 "/>
<path style=" stroke:none;fill-rule:nonzero;fill:rgb(0%,0%,0%);fill-opacity:1;" d="M 187.5 163.042969 C 156.03125 163.042969 130.433594 137.445312 130.433594 105.976562 C 130.433594 74.511719 156.03125 48.914062 187.5 48.914062 C 218.96875 48.914062 244.566406 74.511719 244.566406 105.976562 C 244.566406 137.445312 218.96875 163.042969 187.5 163.042969 Z M 187.5 65.21875 C 165.03125 65.21875 146.738281 83.511719 146.738281 105.976562 C 146.738281 128.445312 165.03125 146.738281 187.5 146.738281 C 209.96875 146.738281 228.261719 128.445312 228.261719 105.976562 C 228.261719 83.511719 209.96875 65.21875 187.5 65.21875 Z M 187.5 65.21875 "/>
</g>
</svg>
