<?xml version="1.0" encoding="UTF-8"?>
<svg xmlns="http://www.w3.org/2000/svg" xmlns:xlink="http://www.w3.org/1999/xlink" width="375pt" height="374.999991pt" viewBox="0 0 375 374.999991" version="1.2">
<g id="surface1">
<path style=" stroke:none;fill-rule:nonzero;fill:rgb(0%,0%,0%);fill-opacity:1;" d="M 187.5 0 C 184.429688 0 181.363281 0.0742188 178.300781 0.226562 C 175.234375 0.375 172.175781 0.601562 169.121094 0.902344 C 166.066406 1.203125 163.023438 1.578125 159.988281 2.03125 C 156.953125 2.480469 153.929688 3.003906 150.921875 3.601562 C 147.910156 4.203125 144.917969 4.875 141.941406 5.617188 C 138.964844 6.363281 136.007812 7.183594 133.070312 8.074219 C 130.136719 8.964844 127.222656 9.925781 124.332031 10.960938 C 121.445312 11.996094 118.582031 13.097656 115.746094 14.273438 C 112.910156 15.445312 110.105469 16.691406 107.332031 18.003906 C 104.558594 19.3125 101.820312 20.691406 99.113281 22.140625 C 96.40625 23.585938 93.738281 25.097656 91.105469 26.675781 C 88.472656 28.253906 85.882812 29.894531 83.332031 31.597656 C 80.777344 33.304688 78.269531 35.070312 75.804688 36.898438 C 73.339844 38.726562 70.921875 40.613281 68.550781 42.558594 C 66.179688 44.507812 63.855469 46.511719 61.582031 48.570312 C 59.308594 50.632812 57.085938 52.746094 54.917969 54.917969 C 52.746094 57.085938 50.632812 59.308594 48.570312 61.582031 C 46.511719 63.855469 44.507812 66.179688 42.558594 68.550781 C 40.613281 70.921875 38.726562 73.339844 36.898438 75.804688 C 35.070312 78.269531 33.304688 80.777344 31.597656 83.332031 C 29.894531 85.882812 28.253906 88.472656 26.675781 91.105469 C 25.097656 93.738281 23.585938 96.40625 22.140625 99.113281 C 20.691406 101.820312 19.3125 104.558594 18.003906 107.332031 C 16.691406 110.105469 15.445312 112.910156 14.273438 115.746094 C 13.097656 118.582031 11.996094 121.445312 10.960938 124.332031 C 9.925781 127.222656 8.964844 130.136719 8.074219 133.070312 C 7.183594 136.007812 6.363281 138.964844 5.617188 141.941406 C 4.875 144.917969 4.203125 147.910156 3.601562 150.921875 C 3.003906 153.929688 2.480469 156.953125 2.03125 159.988281 C 1.578125 163.023438 1.203125 166.066406 0.902344 169.121094 C 0.601562 172.175781 0.375 175.234375 0.226562 178.300781 C 0.0742188 181.363281 0 184.429688 0 187.5 C 0 190.570312 0.0742188 193.636719 0.226562 196.699219 C 0.375 199.765625 0.601562 202.824219 0.902344 205.878906 C 1.203125 208.933594 1.578125 211.976562 2.03125 215.011719 C 2.480469 218.046875 3.003906 221.070312 3.601562 224.078125 C 4.203125 227.089844 4.875 230.082031 5.617188 233.058594 C 6.363281 236.035156 7.183594 238.992188 8.074219 241.929688 C 8.964844 244.863281 9.925781 247.777344 10.960938 250.667969 C 11.996094 253.554688 13.097656 256.417969 14.273438 259.253906 C 15.445312 262.089844 16.691406 264.894531 18.003906 267.667969 C 19.3125 270.441406 20.691406 273.179688 22.140625 275.886719 C 23.585938 278.59375 25.097656 281.261719 26.675781 283.894531 C 28.253906 286.527344 29.894531 289.117188 31.597656 291.667969 C 33.304688 294.222656 35.070312 296.730469 36.898438 299.195312 C 38.726562 301.660156 40.613281 304.078125 42.558594 306.449219 C 44.507812 308.820312 46.511719 311.144531 48.570312 313.417969 C 50.632812 315.691406 52.746094 317.914062 54.917969 320.082031 C 57.085938 322.253906 59.308594 324.367188 61.582031 326.429688 C 63.855469 328.488281 66.179688 330.492188 68.550781 332.4375 C 70.921875 334.386719 73.339844 336.273438 75.804688 338.101562 C 78.269531 339.929688 80.777344 341.695312 83.332031 343.402344 C 85.882812 345.105469 88.472656 346.746094 91.105469 348.324219 C 93.738281 349.902344 96.40625 351.414062 99.113281 352.859375 C 101.820312 354.308594 104.558594 355.6875 107.332031 356.996094 C 110.105469 358.308594 112.910156 359.554688 115.746094 360.726562 C 118.582031 361.902344 121.445312 363.003906 124.332031 364.039062 C 127.222656 365.074219 130.136719 366.035156 133.070312 366.925781 C 136.007812 367.816406 138.964844 368.636719 141.941406 369.378906 C 144.917969 370.125 147.910156 370.796875 150.921875 371.398438 C 153.929688 371.996094 156.953125 372.519531 159.988281 372.96875 C 163.023438 373.421875 166.066406 373.796875 169.121094 374.097656 C 172.175781 374.398438 175.234375 374.625 178.300781 374.773438 C 181.363281 374.925781 184.429688 375 187.5 375 C 190.570312 375 193.636719 374.925781 196.699219 374.773438 C 199.765625 374.625 202.824219 374.398438 205.878906 374.097656 C 208.933594 373.796875 211.976562 373.421875 215.011719 372.96875 C 218.046875 372.519531 221.070312 371.996094 224.078125 371.398438 C 227.089844 370.796875 230.082031 370.125 233.058594 369.378906 C 236.035156 368.636719 238.992188 367.816406 241.929688 366.925781 C 244.863281 366.035156 247.777344 365.074219 250.667969 364.039062 C 253.554688 363.003906 256.417969 361.902344 259.253906 360.726562 C 262.089844 359.554688 264.894531 358.308594 267.667969 356.996094 C 270.441406 355.6875 273.179688 354.308594 275.886719 352.859375 C 278.59375 351.414062 281.261719 349.902344 283.894531 348.324219 C 286.527344 346.746094 289.117188 345.105469 291.667969 343.402344 C 294.222656 341.695312 296.730469 339.929688 299.195312 338.101562 C 301.660156 336.273438 304.078125 334.386719 306.449219 332.4375 C 308.820312 330.492188 311.144531 328.488281 313.417969 326.429688 C 315.691406 324.367188 317.914062 322.253906 320.082031 320.082031 C 322.253906 317.914062 324.367188 315.691406 326.429688 313.417969 C 328.488281 311.144531 330.492188 308.820312 332.4375 306.449219 C 334.386719 304.078125 336.273438 301.660156 338.101562 299.195312 C 339.929688 296.730469 341.695312 294.222656 343.402344 291.667969 C 345.105469 289.117188 346.746094 286.527344 348.324219 283.894531 C 349.902344 281.261719 351.414062 278.59375 352.859375 275.886719 C 354.308594 273.179688 355.6875 270.441406 356.996094 267.667969 C 358.308594 264.894531 359.554688 262.089844 360.726562 259.253906 C 361.902344 256.417969 363.003906 253.554688 364.039062 250.667969 C 365.074219 247.777344 366.035156 244.863281 366.925781 241.929688 C 367.816406 238.992188 368.636719 236.035156 369.378906 233.058594 C 370.125 230.082031 370.796875 227.089844 371.398438 224.078125 C 371.996094 221.070312 372.519531 218.046875 372.96875 215.011719 C 373.421875 211.976562 373.796875 208.933594 374.097656 205.878906 C 374.398438 202.824219 374.625 199.765625 374.773438 196.699219 C 374.925781 193.636719 375 190.570312 375 187.5 C 375 184.429688 374.925781 181.363281 374.773438 178.300781 C 374.625 175.234375 374.398438 172.175781 374.097656 169.121094 C 373.796875 166.066406 373.421875 163.023438 372.96875 159.988281 C 372.519531 156.953125 371.996094 153.929688 371.398438 150.921875 C 370.796875 147.910156 370.125 144.917969 369.378906 141.941406 C 368.636719 138.964844 367.816406 136.007812 366.925781 133.070312 C 366.035156 130.136719 365.074219 127.222656 364.039062 124.332031 C 363.003906 121.445312 361.902344 118.582031 360.726562 115.746094 C 359.554688 112.910156 358.308594 110.105469 356.996094 107.332031 C 355.6875 104.558594 354.308594 101.820312 352.859375 99.113281 C 351.414062 96.40625 349.902344 93.738281 348.324219 91.105469 C 346.746094 88.472656 345.105469 85.882812 343.402344 83.332031 C 341.695312 80.777344 339.929688 78.269531 338.101562 75.804688 C 336.273438 73.339844 334.386719 70.921875 332.4375 68.550781 C 330.492188 66.179688 328.488281 63.855469 326.429688 61.582031 C 324.367188 59.308594 322.253906 57.085938 320.082031 54.917969 C 317.914062 52.746094 315.691406 50.632812 313.417969 48.570312 C 311.144531 46.511719 308.820312 44.507812 306.449219 42.558594 C 304.078125 40.613281 301.660156 38.726562 299.195312 36.898438 C 296.730469 35.070312 294.222656 33.304688 291.667969 31.597656 C 289.117188 29.894531 286.527344 28.253906 283.894531 26.675781 C 281.261719 25.097656 278.59375 23.585938 275.886719 22.140625 C 273.179688 20.691406 270.441406 19.3125 267.667969 18.003906 C 264.894531 16.691406 262.089844 15.445312 259.253906 14.273438 C 256.417969 13.097656 253.554688 11.996094 250.667969 10.960938 C 247.777344 9.925781 244.863281 8.964844 241.929688 8.074219 C 238.992188 7.183594 236.035156 6.363281 233.058594 5.617188 C 230.082031 4.875 227.089844 4.203125 224.078125 3.601562 C 221.070312 3.003906 218.046875 2.480469 215.011719 2.03125 C 211.976562 1.578125 208.933594 1.203125 205.878906 0.902344 C 202.824219 0.601562 199.765625 0.375 196.699219 0.226562 C 193.636719 0.0742188 190.570312 0 187.5 0 Z M 267.855469 214.285156 L 214.285156 214.285156 L 214.285156 267.855469 C 214.285156 268.734375 214.242188 269.609375 214.15625 270.484375 C 214.070312 271.355469 213.941406 272.222656 213.769531 273.082031 C 213.601562 273.941406 213.386719 274.792969 213.132812 275.632812 C 212.878906 276.472656 212.582031 277.296875 212.246094 278.109375 C 211.910156 278.917969 211.535156 279.710938 211.121094 280.484375 C 210.710938 281.257812 210.257812 282.007812 209.769531 282.738281 C 209.285156 283.46875 208.761719 284.171875 208.207031 284.851562 C 207.648438 285.527344 207.0625 286.175781 206.441406 286.796875 C 205.820312 287.417969 205.171875 288.007812 204.492188 288.5625 C 203.816406 289.121094 203.109375 289.640625 202.382812 290.128906 C 201.652344 290.617188 200.898438 291.066406 200.125 291.480469 C 199.351562 291.894531 198.5625 292.269531 197.75 292.605469 C 196.941406 292.941406 196.113281 293.234375 195.277344 293.488281 C 194.4375 293.742188 193.585938 293.957031 192.726562 294.128906 C 191.867188 294.300781 191 294.429688 190.125 294.515625 C 189.253906 294.601562 188.378906 294.644531 187.5 294.644531 C 186.621094 294.644531 185.746094 294.601562 184.875 294.515625 C 184 294.429688 183.136719 294.300781 182.273438 294.128906 C 181.414062 293.957031 180.5625 293.742188 179.722656 293.488281 C 178.886719 293.234375 178.058594 292.941406 177.25 292.605469 C 176.4375 292.269531 175.648438 291.894531 174.875 291.480469 C 174.101562 291.066406 173.347656 290.617188 172.617188 290.128906 C 171.890625 289.640625 171.183594 289.121094 170.507812 288.5625 C 169.828125 288.007812 169.179688 287.417969 168.558594 286.796875 C 167.9375 286.175781 167.351562 285.527344 166.792969 284.851562 C 166.238281 284.171875 165.714844 283.46875 165.226562 282.738281 C 164.742188 282.007812 164.289062 281.257812 163.878906 280.484375 C 163.464844 279.710938 163.089844 278.917969 162.753906 278.109375 C 162.417969 277.296875 162.121094 276.472656 161.867188 275.632812 C 161.613281 274.792969 161.398438 273.941406 161.230469 273.082031 C 161.058594 272.222656 160.929688 271.355469 160.84375 270.484375 C 160.757812 269.609375 160.714844 268.734375 160.714844 267.855469 L 160.714844 214.285156 L 107.144531 214.285156 C 106.265625 214.285156 105.390625 214.242188 104.515625 214.15625 C 103.644531 214.070312 102.777344 213.941406 101.917969 213.769531 C 101.058594 213.601562 100.207031 213.386719 99.367188 213.132812 C 98.527344 212.878906 97.703125 212.582031 96.890625 212.246094 C 96.082031 211.910156 95.289062 211.535156 94.515625 211.121094 C 93.742188 210.710938 92.992188 210.257812 92.261719 209.769531 C 91.53125 209.285156 90.828125 208.761719 90.148438 208.207031 C 89.472656 207.648438 88.824219 207.0625 88.203125 206.441406 C 87.582031 205.820312 86.992188 205.171875 86.4375 204.492188 C 85.878906 203.816406 85.359375 203.109375 84.871094 202.382812 C 84.382812 201.652344 83.933594 200.898438 83.519531 200.125 C 83.105469 199.351562 82.730469 198.5625 82.394531 197.75 C 82.058594 196.941406 81.765625 196.113281 81.511719 195.277344 C 81.257812 194.4375 81.042969 193.585938 80.871094 192.726562 C 80.699219 191.863281 80.570312 191 80.484375 190.125 C 80.398438 189.253906 80.355469 188.378906 80.355469 187.5 C 80.355469 186.621094 80.398438 185.746094 80.484375 184.875 C 80.570312 184 80.699219 183.132812 80.871094 182.273438 C 81.042969 181.414062 81.257812 180.5625 81.511719 179.722656 C 81.765625 178.886719 82.058594 178.058594 82.394531 177.25 C 82.730469 176.4375 83.105469 175.648438 83.519531 174.875 C 83.933594 174.097656 84.382812 173.347656 84.871094 172.617188 C 85.359375 171.890625 85.878906 171.183594 86.4375 170.507812 C 86.992188 169.828125 87.582031 169.179688 88.203125 168.558594 C 88.824219 167.9375 89.472656 167.351562 90.148438 166.792969 C 90.828125 166.238281 91.53125 165.714844 92.261719 165.226562 C 92.992188 164.742188 93.742188 164.289062 94.515625 163.878906 C 95.289062 163.464844 96.082031 163.089844 96.890625 162.753906 C 97.703125 162.417969 98.527344 162.121094 99.367188 161.867188 C 100.207031 161.613281 101.058594 161.398438 101.917969 161.230469 C 102.777344 161.058594 103.644531 160.929688 104.515625 160.84375 C 105.390625 160.757812 106.265625 160.714844 107.144531 160.714844 L 160.714844 160.714844 L 160.714844 107.144531 C 160.714844 106.265625 160.757812 105.390625 160.84375 104.515625 C 160.929688 103.644531 161.058594 102.777344 161.230469 101.917969 C 161.398438 101.058594 161.613281 100.207031 161.867188 99.367188 C 162.121094 98.527344 162.417969 97.703125 162.753906 96.890625 C 163.089844 96.082031 163.464844 95.289062 163.878906 94.515625 C 164.289062 93.742188 164.742188 92.992188 165.226562 92.261719 C 165.714844 91.53125 166.238281 90.828125 166.792969 90.148438 C 167.351562 89.472656 167.9375 88.824219 168.558594 88.203125 C 169.179688 87.582031 169.828125 86.992188 170.507812 86.4375 C 171.183594 85.878906 171.890625 85.359375 172.617188 84.871094 C 173.347656 84.382812 174.097656 83.933594 174.875 83.519531 C 175.648438 83.105469 176.4375 82.730469 177.25 82.394531 C 178.058594 82.058594 178.886719 81.765625 179.722656 81.511719 C 180.5625 81.257812 181.414062 81.042969 182.273438 80.871094 C 183.136719 80.699219 184 80.570312 184.875 80.484375 C 185.746094 80.398438 186.621094 80.355469 187.5 80.355469 C 188.378906 80.355469 189.253906 80.398438 190.125 80.484375 C 191 80.570312 191.867188 80.699219 192.726562 80.871094 C 193.585938 81.042969 194.4375 81.257812 195.277344 81.511719 C 196.113281 81.765625 196.941406 82.058594 197.75 82.394531 C 198.5625 82.730469 199.351562 83.105469 200.125 83.519531 C 200.898438 83.933594 201.652344 84.382812 202.382812 84.871094 C 203.109375 85.359375 203.816406 85.878906 204.492188 86.4375 C 205.171875 86.992188 205.820312 87.582031 206.441406 88.203125 C 207.0625 88.824219 207.648438 89.472656 208.207031 90.148438 C 208.761719 90.828125 209.285156 91.53125 209.769531 92.261719 C 210.257812 92.992188 210.710938 93.742188 211.121094 94.515625 C 211.535156 95.289062 211.910156 96.082031 212.246094 96.890625 C 212.582031 97.703125 212.878906 98.527344 213.132812 99.367188 C 213.386719 100.207031 213.601562 101.058594 213.769531 101.917969 C 213.941406 102.777344 214.070312 103.644531 214.15625 104.515625 C 214.242188 105.390625 214.285156 106.265625 214.285156 107.144531 L 214.285156 160.714844 L 267.855469 160.714844 C 268.734375 160.714844 269.609375 160.757812 270.484375 160.84375 C 271.355469 160.929688 272.222656 161.058594 273.082031 161.230469 C 273.941406 161.398438 274.792969 161.613281 275.632812 161.867188 C 276.472656 162.121094 277.296875 162.417969 278.109375 162.753906 C 278.917969 163.089844 279.710938 163.464844 280.484375 163.878906 C 281.257812 164.289062 282.007812 164.742188 282.738281 165.226562 C 283.46875 165.714844 284.171875 166.238281 284.851562 166.792969 C 285.527344 167.351562 286.175781 167.9375 286.796875 168.558594 C 287.417969 169.179688 288.007812 169.828125 288.5625 170.507812 C 289.121094 171.183594 289.640625 171.890625 290.128906 172.617188 C 290.617188 173.347656 291.066406 174.097656 291.480469 174.875 C 291.894531 175.648438 292.269531 176.4375 292.605469 177.25 C 292.941406 178.058594 293.234375 178.886719 293.488281 179.722656 C 293.742188 180.5625 293.957031 181.414062 294.128906 182.273438 C 294.300781 183.132812 294.429688 184 294.515625 184.875 C 294.601562 185.746094 294.644531 186.621094 294.644531 187.5 C 294.644531 188.378906 294.601562 189.253906 294.515625 190.125 C 294.429688 191 294.300781 191.863281 294.128906 192.726562 C 293.957031 193.585938 293.742188 194.4375 293.488281 195.277344 C 293.234375 196.113281 292.941406 196.941406 292.605469 197.75 C 292.269531 198.5625 291.894531 199.351562 291.480469 200.125 C 291.066406 200.898438 290.617188 201.652344 290.128906 202.382812 C 289.640625 203.109375 289.121094 203.816406 288.5625 204.492188 C 288.007812 205.171875 287.417969 205.820312 286.796875 206.441406 C 286.175781 207.0625 285.527344 207.648438 284.851562 208.207031 C 284.171875 208.761719 283.46875 209.285156 282.738281 209.769531 C 282.007812 210.257812 281.257812 210.710938 280.484375 211.121094 C 279.710938 211.535156 278.917969 211.910156 278.109375 212.246094 C 277.296875 212.582031 276.472656 212.878906 275.632812 213.132812 C 274.792969 213.386719 273.941406 213.601562 273.082031 213.769531 C 272.222656 213.941406 271.355469 214.070312 270.484375 214.15625 C 269.609375 214.242188 268.734375 214.285156 267.855469 214.285156 Z M 267.855469 214.285156 "/>
</g>
</svg>
